<?xml version="1.0" encoding="UTF-8"?>
<svg width="433.62" height="289.08" version="1.1" viewBox="0 0 433.62 289.08" xmlns="http://www.w3.org/2000/svg">
 <desc>R SVG Plot!</desc>
 <rect width="100%" height="100%" fill="#fff"/>
 <g fill="#f00" stroke="#f00">
  <circle cx="39.95" cy="248.71" r="1.88"/>
  <circle cx="49.29" cy="248.71" r="1.88"/>
  <circle cx="58.64" cy="248.71" r="1.88"/>
  <circle cx="67.98" cy="248.71" r="1.88"/>
  <circle cx="77.32" cy="248.71" r="1.88"/>
  <circle cx="86.66" cy="248.71" r="1.88"/>
  <circle cx="96.01" cy="248.7" r="1.88"/>
  <circle cx="105.35" cy="248.69" r="1.88"/>
  <circle cx="114.69" cy="248.64" r="1.88"/>
  <circle cx="124.04" cy="248.47" r="1.88"/>
  <circle cx="133.38" cy="247.98" r="1.88"/>
  <circle cx="142.72" cy="246.74" r="1.88"/>
  <circle cx="152.07" cy="243.94" r="1.88"/>
  <circle cx="161.41" cy="238.45" r="1.88"/>
  <circle cx="170.75" cy="228.92" r="1.88"/>
  <circle cx="180.09" cy="214.41" r="1.88"/>
  <circle cx="189.44" cy="195.13" r="1.88"/>
  <circle cx="198.78" cy="173.06" r="1.88"/>
  <circle cx="208.12" cy="152.05" r="1.88"/>
  <circle cx="217.47" cy="136.79" r="1.88"/>
  <circle cx="226.81" cy="131.19" r="1.88"/>
  <circle cx="236.15" cy="136.79" r="1.88"/>
  <circle cx="245.5" cy="152.05" r="1.88"/>
  <circle cx="254.84" cy="173.06" r="1.88"/>
  <circle cx="264.18" cy="195.13" r="1.88"/>
  <circle cx="273.53" cy="214.41" r="1.88"/>
  <circle cx="282.87" cy="228.92" r="1.88"/>
  <circle cx="292.21" cy="238.45" r="1.88"/>
  <circle cx="301.55" cy="243.94" r="1.88"/>
  <circle cx="310.9" cy="246.74" r="1.88"/>
  <circle cx="320.24" cy="247.98" r="1.88"/>
  <circle cx="329.58" cy="248.47" r="1.88"/>
  <circle cx="338.93" cy="248.64" r="1.88"/>
  <circle cx="348.27" cy="248.69" r="1.88"/>
  <circle cx="357.61" cy="248.7" r="1.88"/>
  <circle cx="366.96" cy="248.71" r="1.88"/>
  <circle cx="376.3" cy="248.71" r="1.88"/>
  <circle cx="385.64" cy="248.71" r="1.88"/>
  <circle cx="394.98" cy="248.71" r="1.88"/>
  <circle cx="404.33" cy="248.71" r="1.88"/>
  <circle cx="413.67" cy="248.71" r="1.88"/>
 </g>
 <g fill-opacity="0" stroke="#000">
  <line x1="39.95" x2="413.67" y1="258.08" y2="258.08"/>
  <line x1="39.95" x2="39.95" y1="258.08" y2="263.08"/>
  <line x1="133.38" x2="133.38" y1="258.08" y2="263.08"/>
  <line x1="226.81" x2="226.81" y1="258.08" y2="263.08"/>
  <line x1="320.24" x2="320.24" y1="258.08" y2="263.08"/>
  <line x1="413.67" x2="413.67" y1="258.08" y2="263.08"/>
 </g>
 <g font-size="12">
  <text transform="translate(36.95 278.08)">0</text>
  <text transform="translate(126.78 278.08)">10</text>
  <text transform="translate(220.21 278.08)">20</text>
  <text transform="translate(313.64 278.08)">30</text>
  <text transform="translate(407.07 278.08)">40</text>
 </g>
 <g fill-opacity="0" stroke="#000">
  <line x1="25" x2="25" y1="248.71" y2="14.37"/>
  <line x1="25" x2="20" y1="248.71" y2="248.71"/>
  <line x1="25" x2="20" y1="201.84" y2="201.84"/>
  <line x1="25" x2="20" y1="154.97" y2="154.97"/>
  <line x1="25" x2="20" y1="108.11" y2="108.11"/>
  <line x1="25" x2="20" y1="61.24" y2="61.24"/>
  <line x1="25" x2="20" y1="14.37" y2="14.37"/>
 </g>
 <g font-size="12">
  <text transform="translate(15 260.44) rotate(-90)">0.00</text>
  <text transform="translate(15 213.57) rotate(-90)">0.05</text>
  <text transform="translate(15 166.71) rotate(-90)">0.10</text>
  <text transform="translate(15 119.84) rotate(-90)">0.15</text>
  <text transform="translate(15 72.97) rotate(-90)">0.20</text>
  <text transform="translate(15 26.11) rotate(-90)">0.25</text>
 </g>
 <polyline points="25 258.08 428.62 258.08 428.62 5 25 5 25 258.08" fill-opacity="0" stroke="#000"/>
 <g fill="#0f0" stroke-opacity="0">
  <polygon points="38.07 250.58 41.82 250.58 41.82 246.83 38.07 246.83"/>
  <polygon points="47.42 250.58 51.17 250.58 51.17 246.83 47.42 246.83"/>
  <polygon points="56.76 250.58 60.51 250.58 60.51 246.83 56.76 246.83"/>
  <polygon points="66.1 250.58 69.85 250.58 69.85 246.83 66.1 246.83"/>
  <polygon points="75.45 250.58 79.2 250.58 79.2 246.83 75.45 246.83"/>
  <polygon points="84.79 250.55 88.54 250.55 88.54 246.8 84.79 246.8"/>
  <polygon points="94.13 250.38 97.88 250.38 97.88 246.63 94.13 246.63"/>
  <polygon points="103.48 249.63 107.23 249.63 107.23 245.88 103.48 245.88"/>
  <polygon points="112.82 246.96 116.57 246.96 116.57 243.21 112.82 243.21"/>
  <polygon points="122.16 239.33 125.91 239.33 125.91 235.58 122.16 235.58"/>
  <polygon points="131.5 221.7 135.25 221.7 135.25 217.95 131.5 217.95"/>
  <polygon points="140.85 189.31 144.6 189.31 144.6 185.56 140.85 185.56"/>
  <polygon points="150.19 143.35 153.94 143.35 153.94 139.6 150.19 139.6"/>
  <polygon points="159.53 96.61 163.28 96.61 163.28 92.86 159.53 92.86"/>
  <polygon points="168.88 70.95 172.63 70.95 172.63 67.2 168.88 67.2"/>
  <polygon points="178.22 82.93 181.97 82.93 181.97 79.18 178.22 79.18"/>
  <polygon points="187.56 128.33 191.31 128.33 191.31 124.58 187.56 124.58"/>
  <polygon points="196.91 183.47 200.66 183.47 200.66 179.72 196.91 179.72"/>
  <polygon points="206.25 224.48 210 224.48 210 220.73 206.25 220.73"/>
  <polygon points="215.59 244.17 219.34 244.17 219.34 240.42 215.59 240.42"/>
  <polygon points="224.94 249.83 228.69 249.83 228.69 246.08 224.94 246.08"/>
 </g>
 <g fill="#00f" stroke-opacity="0">
  <polygon points="38.07 248.71 39.95 246.83 41.82 248.71 39.95 250.58"/>
  <polygon points="47.42 248.69 49.29 246.81 51.17 248.69 49.29 250.56"/>
  <polygon points="56.76 248.54 58.64 246.66 60.51 248.54 58.64 250.41"/>
  <polygon points="66.1 247.69 67.98 245.81 69.85 247.69 67.98 249.56"/>
  <polygon points="75.45 244.38 77.32 242.5 79.2 244.38 77.32 246.25"/>
  <polygon points="84.79 234.85 86.66 232.97 88.54 234.85 86.66 236.72"/>
  <polygon points="94.13 214.06 96.01 212.18 97.88 214.06 96.01 215.93"/>
  <polygon points="103.48 179.41 105.35 177.54 107.23 179.41 105.35 181.29"/>
  <polygon points="112.82 136.1 114.69 134.23 116.57 136.1 114.69 137.98"/>
  <polygon points="122.16 98.57 124.04 96.69 125.91 98.57 124.04 100.44"/>
  <polygon points="131.5 83.55 133.38 81.68 135.25 83.55 133.38 85.43"/>
  <polygon points="140.85 98.57 142.72 96.69 144.6 98.57 142.72 100.44"/>
  <polygon points="150.19 136.1 152.07 134.23 153.94 136.1 152.07 137.98"/>
  <polygon points="159.53 179.41 161.41 177.54 163.28 179.41 161.41 181.29"/>
  <polygon points="168.88 214.06 170.75 212.18 172.63 214.06 170.75 215.93"/>
  <polygon points="178.22 234.85 180.09 232.97 181.97 234.85 180.09 236.72"/>
  <polygon points="187.56 244.38 189.44 242.5 191.31 244.38 189.44 246.25"/>
  <polygon points="196.91 247.69 198.78 245.81 200.66 247.69 198.78 249.56"/>
  <polygon points="206.25 248.54 208.12 246.66 210 248.54 208.12 250.41"/>
  <polygon points="215.59 248.69 217.47 246.81 219.34 248.69 217.47 250.56"/>
  <polygon points="224.94 248.71 226.81 246.83 228.69 248.71 226.81 250.58"/>
  <polygon points="309.83 26.87 311.7 25 313.58 26.87 311.7 28.75"/>
 </g>
 <polygon points="309.83 43.75 313.58 43.75 313.58 40 309.83 40" fill="#0f0" stroke-opacity="0"/>
 <circle cx="311.7" cy="56.87" r="1.88" fill="#f00" stroke="#f00"/>
 <g font-size="12">
  <text transform="translate(320.7 31.87)">p=0.5 and n=20</text>
  <text transform="translate(320.7 46.87)">p=0.7 and n=20</text>
  <text transform="translate(320.7 61.87)">p=0.5 and n=40</text>
 </g>
</svg>
